%TF.GenerationSoftware,KiCad,Pcbnew,(5.1.6)-1*%
%TF.CreationDate,2020-11-18T13:32:08+05:30*%
%TF.ProjectId,ATTiny85 Development Board,41545469-6e79-4383-9520-446576656c6f,rev?*%
%TF.SameCoordinates,Original*%
%TF.FileFunction,Paste,Bot*%
%TF.FilePolarity,Positive*%
%FSLAX46Y46*%
G04 Gerber Fmt 4.6, Leading zero omitted, Abs format (unit mm)*
G04 Created by KiCad (PCBNEW (5.1.6)-1) date 2020-11-18 13:32:08*
%MOMM*%
%LPD*%
G01*
G04 APERTURE LIST*
%ADD10R,3.800000X2.000000*%
%ADD11R,1.500000X2.000000*%
G04 APERTURE END LIST*
%TO.C,C3*%
G36*
G01*
X134363750Y-130067500D02*
X134876250Y-130067500D01*
G75*
G02*
X135095000Y-130286250I0J-218750D01*
G01*
X135095000Y-130723750D01*
G75*
G02*
X134876250Y-130942500I-218750J0D01*
G01*
X134363750Y-130942500D01*
G75*
G02*
X134145000Y-130723750I0J218750D01*
G01*
X134145000Y-130286250D01*
G75*
G02*
X134363750Y-130067500I218750J0D01*
G01*
G37*
G36*
G01*
X134363750Y-131642500D02*
X134876250Y-131642500D01*
G75*
G02*
X135095000Y-131861250I0J-218750D01*
G01*
X135095000Y-132298750D01*
G75*
G02*
X134876250Y-132517500I-218750J0D01*
G01*
X134363750Y-132517500D01*
G75*
G02*
X134145000Y-132298750I0J218750D01*
G01*
X134145000Y-131861250D01*
G75*
G02*
X134363750Y-131642500I218750J0D01*
G01*
G37*
%TD*%
%TO.C,C4*%
G36*
G01*
X141983750Y-131642500D02*
X142496250Y-131642500D01*
G75*
G02*
X142715000Y-131861250I0J-218750D01*
G01*
X142715000Y-132298750D01*
G75*
G02*
X142496250Y-132517500I-218750J0D01*
G01*
X141983750Y-132517500D01*
G75*
G02*
X141765000Y-132298750I0J218750D01*
G01*
X141765000Y-131861250D01*
G75*
G02*
X141983750Y-131642500I218750J0D01*
G01*
G37*
G36*
G01*
X141983750Y-130067500D02*
X142496250Y-130067500D01*
G75*
G02*
X142715000Y-130286250I0J-218750D01*
G01*
X142715000Y-130723750D01*
G75*
G02*
X142496250Y-130942500I-218750J0D01*
G01*
X141983750Y-130942500D01*
G75*
G02*
X141765000Y-130723750I0J218750D01*
G01*
X141765000Y-130286250D01*
G75*
G02*
X141983750Y-130067500I218750J0D01*
G01*
G37*
%TD*%
%TO.C,R2*%
G36*
G01*
X131247500Y-130553750D02*
X131247500Y-131066250D01*
G75*
G02*
X131028750Y-131285000I-218750J0D01*
G01*
X130591250Y-131285000D01*
G75*
G02*
X130372500Y-131066250I0J218750D01*
G01*
X130372500Y-130553750D01*
G75*
G02*
X130591250Y-130335000I218750J0D01*
G01*
X131028750Y-130335000D01*
G75*
G02*
X131247500Y-130553750I0J-218750D01*
G01*
G37*
G36*
G01*
X129672500Y-130553750D02*
X129672500Y-131066250D01*
G75*
G02*
X129453750Y-131285000I-218750J0D01*
G01*
X129016250Y-131285000D01*
G75*
G02*
X128797500Y-131066250I0J218750D01*
G01*
X128797500Y-130553750D01*
G75*
G02*
X129016250Y-130335000I218750J0D01*
G01*
X129453750Y-130335000D01*
G75*
G02*
X129672500Y-130553750I0J-218750D01*
G01*
G37*
%TD*%
%TO.C,R3*%
G36*
G01*
X132336250Y-121087500D02*
X131823750Y-121087500D01*
G75*
G02*
X131605000Y-120868750I0J218750D01*
G01*
X131605000Y-120431250D01*
G75*
G02*
X131823750Y-120212500I218750J0D01*
G01*
X132336250Y-120212500D01*
G75*
G02*
X132555000Y-120431250I0J-218750D01*
G01*
X132555000Y-120868750D01*
G75*
G02*
X132336250Y-121087500I-218750J0D01*
G01*
G37*
G36*
G01*
X132336250Y-122662500D02*
X131823750Y-122662500D01*
G75*
G02*
X131605000Y-122443750I0J218750D01*
G01*
X131605000Y-122006250D01*
G75*
G02*
X131823750Y-121787500I218750J0D01*
G01*
X132336250Y-121787500D01*
G75*
G02*
X132555000Y-122006250I0J-218750D01*
G01*
X132555000Y-122443750D01*
G75*
G02*
X132336250Y-122662500I-218750J0D01*
G01*
G37*
%TD*%
D10*
%TO.C,U3*%
X137160000Y-116230000D03*
D11*
X137160000Y-122530000D03*
X134860000Y-122530000D03*
X139460000Y-122530000D03*
%TD*%
M02*
