%TF.GenerationSoftware,KiCad,Pcbnew,(5.1.6)-1*%
%TF.CreationDate,2020-11-18T13:32:08+05:30*%
%TF.ProjectId,ATTiny85 Development Board,41545469-6e79-4383-9520-446576656c6f,rev?*%
%TF.SameCoordinates,Original*%
%TF.FileFunction,Soldermask,Bot*%
%TF.FilePolarity,Negative*%
%FSLAX46Y46*%
G04 Gerber Fmt 4.6, Leading zero omitted, Abs format (unit mm)*
G04 Created by KiCad (PCBNEW (5.1.6)-1) date 2020-11-18 13:32:08*
%MOMM*%
%LPD*%
G01*
G04 APERTURE LIST*
%ADD10O,1.800000X1.800000*%
%ADD11R,1.800000X1.800000*%
%ADD12O,0.900000X0.900000*%
%ADD13O,1.250000X1.900000*%
%ADD14O,1.550000X2.100000*%
%ADD15R,3.900000X2.100000*%
%ADD16R,1.600000X2.100000*%
G04 APERTURE END LIST*
D10*
%TO.C,J3*%
X146050000Y-115570000D03*
X146050000Y-118110000D03*
X146050000Y-120650000D03*
X146050000Y-123190000D03*
X146050000Y-125730000D03*
D11*
X146050000Y-128270000D03*
%TD*%
D12*
%TO.C,J1*%
X134660000Y-104940000D03*
X139660000Y-104940000D03*
D13*
X133285000Y-102190000D03*
X141035000Y-102190000D03*
D14*
X133435000Y-105990000D03*
X140885000Y-105990000D03*
%TD*%
%TO.C,C3*%
G36*
G01*
X134338750Y-130017500D02*
X134901250Y-130017500D01*
G75*
G02*
X135145000Y-130261250I0J-243750D01*
G01*
X135145000Y-130748750D01*
G75*
G02*
X134901250Y-130992500I-243750J0D01*
G01*
X134338750Y-130992500D01*
G75*
G02*
X134095000Y-130748750I0J243750D01*
G01*
X134095000Y-130261250D01*
G75*
G02*
X134338750Y-130017500I243750J0D01*
G01*
G37*
G36*
G01*
X134338750Y-131592500D02*
X134901250Y-131592500D01*
G75*
G02*
X135145000Y-131836250I0J-243750D01*
G01*
X135145000Y-132323750D01*
G75*
G02*
X134901250Y-132567500I-243750J0D01*
G01*
X134338750Y-132567500D01*
G75*
G02*
X134095000Y-132323750I0J243750D01*
G01*
X134095000Y-131836250D01*
G75*
G02*
X134338750Y-131592500I243750J0D01*
G01*
G37*
%TD*%
%TO.C,C4*%
G36*
G01*
X141958750Y-131592500D02*
X142521250Y-131592500D01*
G75*
G02*
X142765000Y-131836250I0J-243750D01*
G01*
X142765000Y-132323750D01*
G75*
G02*
X142521250Y-132567500I-243750J0D01*
G01*
X141958750Y-132567500D01*
G75*
G02*
X141715000Y-132323750I0J243750D01*
G01*
X141715000Y-131836250D01*
G75*
G02*
X141958750Y-131592500I243750J0D01*
G01*
G37*
G36*
G01*
X141958750Y-130017500D02*
X142521250Y-130017500D01*
G75*
G02*
X142765000Y-130261250I0J-243750D01*
G01*
X142765000Y-130748750D01*
G75*
G02*
X142521250Y-130992500I-243750J0D01*
G01*
X141958750Y-130992500D01*
G75*
G02*
X141715000Y-130748750I0J243750D01*
G01*
X141715000Y-130261250D01*
G75*
G02*
X141958750Y-130017500I243750J0D01*
G01*
G37*
%TD*%
D11*
%TO.C,J2*%
X128270000Y-128270000D03*
D10*
X128270000Y-125730000D03*
X128270000Y-123190000D03*
X128270000Y-120650000D03*
X128270000Y-118110000D03*
X128270000Y-115570000D03*
%TD*%
%TO.C,R2*%
G36*
G01*
X131297500Y-130528750D02*
X131297500Y-131091250D01*
G75*
G02*
X131053750Y-131335000I-243750J0D01*
G01*
X130566250Y-131335000D01*
G75*
G02*
X130322500Y-131091250I0J243750D01*
G01*
X130322500Y-130528750D01*
G75*
G02*
X130566250Y-130285000I243750J0D01*
G01*
X131053750Y-130285000D01*
G75*
G02*
X131297500Y-130528750I0J-243750D01*
G01*
G37*
G36*
G01*
X129722500Y-130528750D02*
X129722500Y-131091250D01*
G75*
G02*
X129478750Y-131335000I-243750J0D01*
G01*
X128991250Y-131335000D01*
G75*
G02*
X128747500Y-131091250I0J243750D01*
G01*
X128747500Y-130528750D01*
G75*
G02*
X128991250Y-130285000I243750J0D01*
G01*
X129478750Y-130285000D01*
G75*
G02*
X129722500Y-130528750I0J-243750D01*
G01*
G37*
%TD*%
%TO.C,R3*%
G36*
G01*
X132361250Y-121137500D02*
X131798750Y-121137500D01*
G75*
G02*
X131555000Y-120893750I0J243750D01*
G01*
X131555000Y-120406250D01*
G75*
G02*
X131798750Y-120162500I243750J0D01*
G01*
X132361250Y-120162500D01*
G75*
G02*
X132605000Y-120406250I0J-243750D01*
G01*
X132605000Y-120893750D01*
G75*
G02*
X132361250Y-121137500I-243750J0D01*
G01*
G37*
G36*
G01*
X132361250Y-122712500D02*
X131798750Y-122712500D01*
G75*
G02*
X131555000Y-122468750I0J243750D01*
G01*
X131555000Y-121981250D01*
G75*
G02*
X131798750Y-121737500I243750J0D01*
G01*
X132361250Y-121737500D01*
G75*
G02*
X132605000Y-121981250I0J-243750D01*
G01*
X132605000Y-122468750D01*
G75*
G02*
X132361250Y-122712500I-243750J0D01*
G01*
G37*
%TD*%
D15*
%TO.C,U3*%
X137160000Y-116230000D03*
D16*
X137160000Y-122530000D03*
X134860000Y-122530000D03*
X139460000Y-122530000D03*
%TD*%
M02*
