M48
; DRILL file {KiCad (5.1.6)-1} date 11/18/20 13:32:17
; FORMAT={-:-/ absolute / inch / decimal}
; #@! TF.CreationDate,2020-11-18T13:32:17+05:30
; #@! TF.GenerationSoftware,Kicad,Pcbnew,(5.1.6)-1
; #@! TF.FileFunction,Plated,1,2,PTH
FMAT,2
INCH
T1C0.0157
T2C0.0217
T3C0.0335
T4C0.0394
%
G90
G05
T1
X5.1Y-4.45
X5.15Y-4.319
X5.15Y-4.65
X5.15Y-4.65
X5.25Y-4.5
X5.4Y-4.319
X5.4Y-5.2
X5.401Y-4.749
X5.5Y-4.7
X5.55Y-4.35
X5.55Y-4.5
X5.65Y-4.1
T4
X5.05Y-4.55
X5.05Y-4.65
X5.05Y-4.75
X5.05Y-4.85
X5.05Y-4.95
X5.05Y-5.05
X5.75Y-4.55
X5.75Y-4.65
X5.75Y-4.75
X5.75Y-4.85
X5.75Y-4.95
X5.75Y-5.05
X5.05Y-4.55
X5.05Y-4.65
X5.05Y-4.75
X5.05Y-4.85
X5.05Y-4.95
X5.05Y-5.05
X5.75Y-4.55
X5.75Y-4.65
X5.75Y-4.75
X5.75Y-4.85
X5.75Y-4.95
X5.75Y-5.05
T2
G00X5.2474Y-4.036
M15
G01X5.2474Y-4.0104
M16
G05
G00X5.5526Y-4.036
M15
G01X5.5526Y-4.0104
M16
G05
T3
G00X5.2533Y-4.1837
M15
G01X5.2533Y-4.162
M16
G05
G00X5.5467Y-4.1837
M15
G01X5.5467Y-4.162
M16
G05
T0
M30
